<svg xmlns="http://www.w3.org/2000/svg" xmlns:xlink="http://www.w3.org/1999/xlink" width="1080" zoomAndPan="magnify" viewBox="0 0 810 809.999993" height="1080" preserveAspectRatio="xMidYMid meet" version="1.0"><defs><clipPath id="ede3f4bcd2"><path d="M 195 91.40625 L 615 91.40625 L 615 718.40625 L 195 718.40625 Z M 195 91.40625 " clip-rule="nonzero"/></clipPath></defs><g clip-path="url(#ede3f4bcd2)"><path fill="#ff865b" d="M 614.0625 509.53125 C 614.0625 624.800781 520.269531 718.59375 405 718.59375 C 289.726562 718.59375 195.9375 624.800781 195.9375 509.53125 L 195.9375 454.390625 C 195.9375 433.71875 220.917969 423.371094 235.554688 437.980469 C 244.910156 447.179688 257.347656 459.433594 264.066406 470.199219 C 270.390625 477.152344 274.363281 486.324219 274.363281 496.464844 L 274.363281 509.53125 C 274.363281 581.578125 332.976562 640.195312 405.027344 640.195312 C 477.074219 640.195312 535.691406 581.578125 535.691406 509.53125 C 535.691406 461.917969 509.738281 418.011719 467.953125 394.992188 C 404.007812 359.738281 365.828125 298.585938 365.828125 231.347656 L 365.828125 208.714844 C 350.042969 196.800781 339.695312 178.0625 339.695312 156.738281 C 339.695312 120.648438 368.9375 91.40625 405.027344 91.40625 C 441.113281 91.40625 470.359375 120.648438 470.359375 156.738281 C 470.359375 178.035156 460.007812 196.773438 444.226562 208.714844 L 444.226562 231.347656 C 444.226562 269.554688 467.246094 305.066406 505.792969 326.339844 C 572.589844 363.160156 614.089844 433.351562 614.089844 509.53125 Z M 614.0625 509.53125 " fill-opacity="1" fill-rule="nonzero"/></g></svg>